<svg width="123" height="24" viewBox="0 0 123 24" fill="none" xmlns="http://www.w3.org/2000/svg">
<circle cx="6" cy="12" r="6" fill="#111828"/>
<path d="M30.6037 4.45455H33.2386V13.9574C33.2386 14.9991 32.9924 15.9152 32.5 16.706C32.0123 17.4967 31.3258 18.1146 30.4403 18.5597C29.5549 19 28.5204 19.2202 27.3366 19.2202C26.1482 19.2202 25.1113 19 24.2259 18.5597C23.3404 18.1146 22.6539 17.4967 22.1662 16.706C21.6785 15.9152 21.4347 14.9991 21.4347 13.9574V4.45455H24.0696V13.7372C24.0696 14.3433 24.2022 14.883 24.4673 15.3565C24.7372 15.83 25.116 16.2017 25.6037 16.4716C26.0914 16.7367 26.669 16.8693 27.3366 16.8693C28.0043 16.8693 28.5819 16.7367 29.0696 16.4716C29.562 16.2017 29.9408 15.83 30.206 15.3565C30.4711 14.883 30.6037 14.3433 30.6037 13.7372V4.45455ZM38.56 12.608V19H35.989V8.09091H38.4464V9.9446H38.5742C38.8252 9.33381 39.2253 8.84848 39.7745 8.48864C40.3285 8.12879 41.0127 7.94886 41.8271 7.94886C42.5799 7.94886 43.2357 8.10985 43.7944 8.43182C44.3578 8.75379 44.7934 9.22017 45.1012 9.83097C45.4137 10.4418 45.5676 11.1828 45.5629 12.054V19H42.9918V12.4517C42.9918 11.7225 42.8024 11.152 42.4237 10.7401C42.0496 10.3281 41.5311 10.1222 40.8683 10.1222C40.4184 10.1222 40.0183 10.2216 39.668 10.4205C39.3223 10.6146 39.0501 10.8963 38.8512 11.2656C38.6571 11.6349 38.56 12.0824 38.56 12.608ZM53.6239 8.09091V10.0795H47.3526V8.09091H53.6239ZM48.9009 5.47727H51.4719V15.7188C51.4719 16.0644 51.524 16.3295 51.6282 16.5142C51.7371 16.6941 51.8791 16.8172 52.0543 16.8835C52.2295 16.9498 52.4237 16.983 52.6367 16.983C52.7977 16.983 52.9445 16.9711 53.0771 16.9474C53.2144 16.9238 53.3185 16.9025 53.3896 16.8835L53.8228 18.8935C53.6855 18.9408 53.489 18.9929 53.2333 19.0497C52.9824 19.1065 52.6746 19.1397 52.31 19.1491C51.6661 19.1681 51.0861 19.071 50.57 18.858C50.0539 18.6402 49.6443 18.304 49.3413 17.8494C49.043 17.3949 48.8962 16.8267 48.9009 16.1449V5.47727ZM55.7741 19V8.09091H58.3452V19H55.7741ZM57.0668 6.54261C56.6596 6.54261 56.3092 6.40767 56.0156 6.13778C55.7221 5.86316 55.5753 5.53409 55.5753 5.15057C55.5753 4.76231 55.7221 4.43324 56.0156 4.16335C56.3092 3.88873 56.6596 3.75142 57.0668 3.75142C57.4787 3.75142 57.8291 3.88873 58.1179 4.16335C58.4115 4.43324 58.5582 4.76231 58.5582 5.15057C58.5582 5.53409 58.4115 5.86316 58.1179 6.13778C57.8291 6.40767 57.4787 6.54261 57.0668 6.54261ZM66.4364 8.09091V10.0795H60.1651V8.09091H66.4364ZM61.7134 5.47727H64.2844V15.7188C64.2844 16.0644 64.3365 16.3295 64.4407 16.5142C64.5496 16.6941 64.6916 16.8172 64.8668 16.8835C65.042 16.9498 65.2362 16.983 65.4492 16.983C65.6102 16.983 65.757 16.9711 65.8896 16.9474C66.0269 16.9238 66.131 16.9025 66.2021 16.8835L66.6353 18.8935C66.498 18.9408 66.3015 18.9929 66.0458 19.0497C65.7949 19.1065 65.4871 19.1397 65.1225 19.1491C64.4786 19.1681 63.8986 19.071 63.3825 18.858C62.8664 18.6402 62.4568 18.304 62.1538 17.8494C61.8555 17.3949 61.7087 16.8267 61.7134 16.1449V5.47727ZM71.392 4.45455V19H68.821V4.45455H71.392ZM78.8654 19.2131C77.7717 19.2131 76.8271 18.9858 76.0316 18.5312C75.2409 18.072 74.6325 17.4233 74.2063 16.5852C73.7802 15.7424 73.5671 14.7505 73.5671 13.6094C73.5671 12.4872 73.7802 11.5024 74.2063 10.6548C74.6372 9.80256 75.2385 9.13968 76.0103 8.66619C76.7821 8.18797 77.6888 7.94886 78.7305 7.94886C79.4028 7.94886 80.0373 8.05777 80.6339 8.27557C81.2352 8.48864 81.7655 8.82008 82.2248 9.26989C82.6888 9.7197 83.0534 10.2926 83.3185 10.9886C83.5837 11.6799 83.7163 12.5038 83.7163 13.4602V14.2486H74.7745V12.5156H81.2518C81.247 12.0232 81.1405 11.5852 80.9322 11.2017C80.7238 10.8134 80.4326 10.508 80.0586 10.2855C79.6893 10.063 79.2584 9.9517 78.766 9.9517C78.2404 9.9517 77.7788 10.0795 77.381 10.3352C76.9833 10.5862 76.6732 10.9176 76.4506 11.3295C76.2328 11.7367 76.1216 12.1842 76.1168 12.6719V14.1847C76.1168 14.8191 76.2328 15.3636 76.4648 15.8182C76.6969 16.268 77.0212 16.6136 77.4379 16.8551C77.8545 17.0919 78.3422 17.2102 78.9009 17.2102C79.275 17.2102 79.6135 17.1581 79.9165 17.054C80.2196 16.9451 80.4824 16.7865 80.7049 16.5781C80.9274 16.3698 81.0955 16.1117 81.2092 15.804L83.6097 16.0739C83.4582 16.7083 83.1694 17.2623 82.7433 17.7358C82.3219 18.2045 81.7821 18.5691 81.1239 18.8295C80.4658 19.0852 79.7129 19.2131 78.8654 19.2131ZM89.9396 19.1918C89.0826 19.1918 88.3156 18.9716 87.6385 18.5312C86.9614 18.0909 86.4264 17.4517 86.0334 16.6136C85.6404 15.7756 85.4439 14.7576 85.4439 13.5597C85.4439 12.3475 85.6428 11.3248 86.0405 10.4915C86.4429 9.65341 86.9851 9.02131 87.6669 8.59517C88.3487 8.1643 89.1087 7.94886 89.9467 7.94886C90.5859 7.94886 91.1115 8.05777 91.5234 8.27557C91.9354 8.48864 92.2621 8.74669 92.5036 9.04972C92.745 9.34801 92.9321 9.62973 93.0646 9.89489H93.1712V4.45455H95.7493V19H93.2209V17.2812H93.0646C92.9321 17.5464 92.7403 17.8281 92.4893 18.1264C92.2384 18.42 91.907 18.6709 91.495 18.8793C91.0831 19.0876 90.5646 19.1918 89.9396 19.1918ZM90.657 17.0824C91.2015 17.0824 91.6655 16.9356 92.049 16.642C92.4325 16.3437 92.7237 15.9295 92.9226 15.3991C93.1214 14.8688 93.2209 14.2509 93.2209 13.5455C93.2209 12.84 93.1214 12.2268 92.9226 11.706C92.7285 11.1851 92.4396 10.7803 92.0561 10.4915C91.6773 10.2027 91.2109 10.0582 90.657 10.0582C90.084 10.0582 89.6058 10.2074 89.2223 10.5057C88.8388 10.804 88.55 11.2159 88.3558 11.7415C88.1617 12.267 88.0646 12.8684 88.0646 13.5455C88.0646 14.2273 88.1617 14.8357 88.3558 15.3707C88.5547 15.901 88.8459 16.3201 89.2294 16.6278C89.6177 16.9309 90.0935 17.0824 90.657 17.0824Z" fill="#333333"/>
<path d="M112.604 4.45455H115.239V13.9574C115.239 14.9991 114.992 15.9152 114.5 16.706C114.012 17.4967 113.326 18.1146 112.44 18.5597C111.555 19 110.52 19.2202 109.337 19.2202C108.148 19.2202 107.111 19 106.226 18.5597C105.34 18.1146 104.654 17.4967 104.166 16.706C103.679 15.9152 103.435 14.9991 103.435 13.9574V4.45455H106.07V13.7372C106.07 14.3433 106.202 14.883 106.467 15.3565C106.737 15.83 107.116 16.2017 107.604 16.4716C108.091 16.7367 108.669 16.8693 109.337 16.8693C110.004 16.8693 110.582 16.7367 111.07 16.4716C111.562 16.2017 111.941 15.83 112.206 15.3565C112.471 14.883 112.604 14.3433 112.604 13.7372V4.45455ZM120.738 4.45455V19H118.103V4.45455H120.738Z" fill="#333333"/>
</svg>
